<svg width="190" height="263" viewBox="0 0 190 263" fill="none" xmlns="http://www.w3.org/2000/svg">
<path fill-rule="evenodd" clip-rule="evenodd" d="M93.327 0.55247C107 -3.86983 116.984 19.4335 129.254 28.5626C140.766 37.1279 153.681 40.9204 163.762 52.959C188.5 82.5 192.456 130.766 187.5 159.5C182.579 188.031 154.837 218.484 133.527 237.771C121.219 248.909 108.234 261.65 93.327 261.99C41.0061 263.183 57.254 212.679 39.5795 184.02C30.0381 168.548 4.53646 174.577 0.479359 155.341C-3.47484 136.594 18.1886 124.423 23.1444 106.097C27.362 90.5 18.2548 69.1482 26.9946 57.2899C36.0553 44.9965 54.067 58.6769 64.965 49.355C78.154 38.0737 78.072 5.48617 93.327 0.55247Z" fill="#4C4C4C"/>
</svg>
